<mxfile host="65bd71144e">
    <diagram id="DNvJzXeUTAswC8QwegvA" name="Page-1">
        <mxGraphModel dx="1315" dy="634" grid="1" gridSize="10" guides="1" tooltips="1" connect="1" arrows="1" fold="1" page="1" pageScale="1" pageWidth="850" pageHeight="1100" math="0" shadow="0">
            <root>
                <mxCell id="0"/>
                <mxCell id="1" parent="0"/>
                <mxCell id="2" value="" style="ellipse;whiteSpace=wrap;html=1;aspect=fixed;fillColor=#1ba1e2;fontColor=#000000;strokeColor=#006EAF;" parent="1" vertex="1">
                    <mxGeometry x="160" y="360" width="50" height="50" as="geometry"/>
                </mxCell>
                <mxCell id="3" value="" style="ellipse;whiteSpace=wrap;html=1;aspect=fixed;fillColor=#1ba1e2;fontColor=#000000;strokeColor=#006EAF;" parent="1" vertex="1">
                    <mxGeometry x="300" y="360" width="50" height="50" as="geometry"/>
                </mxCell>
                <mxCell id="4" value="" style="ellipse;whiteSpace=wrap;html=1;aspect=fixed;fontColor=#000000;strokeColor=#C73500;fillColor=#fa6800;" parent="1" vertex="1">
                    <mxGeometry x="650" y="395" width="50" height="50" as="geometry"/>
                </mxCell>
                <mxCell id="5" value="" style="endArrow=none;html=1;entryX=0;entryY=0.5;entryDx=0;entryDy=0;exitX=1;exitY=0.5;exitDx=0;exitDy=0;strokeColor=#999999;strokeWidth=2;" parent="1" source="2" target="3" edge="1">
                    <mxGeometry width="50" height="50" relative="1" as="geometry">
                        <mxPoint x="120" y="490" as="sourcePoint"/>
                        <mxPoint x="170" y="440" as="targetPoint"/>
                    </mxGeometry>
                </mxCell>
                <mxCell id="6" value="" style="endArrow=none;html=1;entryX=0;entryY=0.5;entryDx=0;entryDy=0;exitX=1;exitY=0.5;exitDx=0;exitDy=0;strokeColor=#999999;strokeWidth=2;" parent="1" source="3" target="14" edge="1">
                    <mxGeometry width="50" height="50" relative="1" as="geometry">
                        <mxPoint x="120" y="490" as="sourcePoint"/>
                        <mxPoint x="170" y="440" as="targetPoint"/>
                    </mxGeometry>
                </mxCell>
                <mxCell id="7" value="" style="verticalLabelPosition=bottom;html=1;verticalAlign=top;align=center;strokeColor=none;fillColor=#00BEF2;shape=mxgraph.azure.laptop;pointerEvents=1;fontSize=15;" parent="1" vertex="1">
                    <mxGeometry x="180" y="480" width="82" height="50" as="geometry"/>
                </mxCell>
                <mxCell id="10" value="main" style="rounded=1;whiteSpace=wrap;html=1;fillColor=#76608a;strokeColor=#432D57;fontColor=#000000;fontSize=20;arcSize=0;" parent="1" vertex="1">
                    <mxGeometry x="422.5" y="300" width="85" height="30" as="geometry"/>
                </mxCell>
                <mxCell id="11" value="" style="endArrow=classic;html=1;fontSize=20;exitX=0.5;exitY=1;exitDx=0;exitDy=0;entryX=0.5;entryY=0;entryDx=0;entryDy=0;strokeColor=#999999;" parent="1" source="10" edge="1">
                    <mxGeometry width="50" height="50" relative="1" as="geometry">
                        <mxPoint x="430" y="350" as="sourcePoint"/>
                        <mxPoint x="465" y="360" as="targetPoint"/>
                    </mxGeometry>
                </mxCell>
                <mxCell id="12" value="" style="rounded=1;whiteSpace=wrap;html=1;fontSize=16;strokeColor=#999999;dashed=1;fillColor=none;" parent="1" vertex="1">
                    <mxGeometry x="130" y="290" width="610" height="260" as="geometry"/>
                </mxCell>
                <mxCell id="14" value="" style="ellipse;whiteSpace=wrap;html=1;aspect=fixed;fillColor=#1ba1e2;fontColor=#000000;strokeColor=#006EAF;" parent="1" vertex="1">
                    <mxGeometry x="440" y="360" width="50" height="50" as="geometry"/>
                </mxCell>
                <mxCell id="15" value="" style="endArrow=none;html=1;entryX=1;entryY=0.5;entryDx=0;entryDy=0;exitX=0;exitY=0.5;exitDx=0;exitDy=0;strokeColor=#999999;strokeWidth=2;" parent="1" source="4" target="14" edge="1">
                    <mxGeometry width="50" height="50" relative="1" as="geometry">
                        <mxPoint x="540" y="585" as="sourcePoint"/>
                        <mxPoint x="580" y="350" as="targetPoint"/>
                    </mxGeometry>
                </mxCell>
                <mxCell id="18" value="dev" style="rounded=1;whiteSpace=wrap;html=1;fillColor=#6d8764;strokeColor=#3A5431;fontColor=#000000;fontSize=20;arcSize=0;" parent="1" vertex="1">
                    <mxGeometry x="632.5" y="492.5" width="85" height="30" as="geometry"/>
                </mxCell>
                <mxCell id="19" value="" style="endArrow=classic;html=1;fontSize=20;exitX=0.5;exitY=0;exitDx=0;exitDy=0;strokeColor=#999999;entryX=0.5;entryY=1;entryDx=0;entryDy=0;" parent="1" source="18" target="4" edge="1">
                    <mxGeometry width="50" height="50" relative="1" as="geometry">
                        <mxPoint x="740" y="435" as="sourcePoint"/>
                        <mxPoint x="675" y="465" as="targetPoint"/>
                    </mxGeometry>
                </mxCell>
                <mxCell id="20" value="&lt;font color=&quot;#000000&quot;&gt;HEAD&lt;/font&gt;" style="rounded=0;whiteSpace=wrap;html=1;fontSize=20;fillColor=none;strokeColor=#000000;" parent="1" vertex="1">
                    <mxGeometry x="460" y="485" width="80" height="45" as="geometry"/>
                </mxCell>
                <mxCell id="21" value="" style="shape=flexArrow;endArrow=classic;html=1;fontSize=20;strokeColor=#000000;" parent="1" edge="1">
                    <mxGeometry width="50" height="50" relative="1" as="geometry">
                        <mxPoint x="560" y="507" as="sourcePoint"/>
                        <mxPoint x="620" y="507" as="targetPoint"/>
                    </mxGeometry>
                </mxCell>
            </root>
        </mxGraphModel>
    </diagram>
</mxfile>